<?xml version="1.0" encoding="utf-8"?>
<!-- Generator: Adobe Illustrator 18.1.0, SVG Export Plug-In . SVG Version: 6.00 Build 0)  -->
<svg version="1.1" id="Layer_1" xmlns="http://www.w3.org/2000/svg" xmlns:xlink="http://www.w3.org/1999/xlink" x="0px" y="0px"
	 viewBox="0 0 650.5 654.6" enable-background="new 0 0 650.5 654.6" xml:space="preserve">
<path fill="#FEEBE6" d="M526.2,21.3c28.4,28.4,28.4,74.5,0,102.9c28.4-28.4,74.5-28.4,102.9,0c28.4,28.4,28.4,74.5,0,102.9
	c-28.4,28.4-74.5,28.4-102.9,0c-4.4-4.4-8.2-9.3-11.2-14.5L469.6,258c50.9,102,6.8,260.6-74.7,342c-93.9,93.9-209.4,57-303.3-37
	s-130.9-209.3-37-303.2c79.9-79.9,234.1-123.9,336.3-77.4l46.9-46.9c-5.2-3.1-10.1-6.8-14.5-11.2c-28.4-28.4-28.4-74.5,0-102.9
	C451.7-7.1,497.8-7.1,526.2,21.3L526.2,21.3z M198.4,456.2c-28.6-28.6-65-38.5-81.4-22.2c-16.3,16.3-6.4,52.8,22.2,81.4
	c28.6,28.6,65,38.5,81.4,22.2C237,521.3,227,484.8,198.4,456.2L198.4,456.2z M227,427.7c-69.4-69.4-150.3-101.2-180.5-71
	c-30.2,30.2,1.6,111.1,71,180.5c69.5,69.4,150.3,101.2,180.5,71C328.3,577.9,296.5,497.1,227,427.7z"/>
</svg>
